<svg xmlns="http://www.w3.org/2000/svg" viewBox="0 0 192.4 70" enable-background="new 0 0 192.4 70"><path fill="#58595B" d="M77 19.4h-1.6v2.7h-1.5v-8.3h3.3c1.9 0 3.2 1.1 3.2 2.8-.1 1.8-1.6 2.8-3.4 2.8zm0-4.3h-1.7v3H77c1.1 0 1.8-.6 1.8-1.5 0-1-.7-1.5-1.8-1.5zM85.8 22.2c-2.5 0-4.3-1.9-4.3-4.3 0-2.3 1.8-4.3 4.4-4.3 2.5 0 4.3 1.9 4.3 4.3s-1.8 4.3-4.4 4.3zm0-7.2c-1.6 0-2.8 1.3-2.8 2.9 0 1.6 1.2 3 2.8 3 1.6 0 2.8-1.3 2.8-2.9 0-1.7-1.1-3-2.8-3zM98.9 18.5c0 2.5-1.4 3.7-3.6 3.7s-3.5-1.2-3.5-3.6v-4.8h1.5v4.7c0 1.5.8 2.4 2.1 2.4s2.1-.8 2.1-2.3v-4.8H99v4.7zM106.8 13.8h1.6l-3.4 8.4h-1.3l-3.4-8.4h1.6l2.5 6.4 2.4-6.4zM113.3 22.2c-2.5 0-4.3-1.9-4.3-4.3 0-2.3 1.8-4.3 4.4-4.3 2.5 0 4.3 1.9 4.3 4.3-.1 2.4-1.9 4.3-4.4 4.3zm0-7.2c-1.6 0-2.8 1.3-2.8 2.9 0 1.6 1.2 3 2.8 3 1.6 0 2.8-1.3 2.8-2.9 0-1.7-1.2-3-2.8-3zM120.9 13.8v8.3h-1.5v-8.3h1.5zM128.5 22.1l-2-2.9h-1.8v2.9h-1.5v-8.3h3.7c1.9 0 3.1 1 3.1 2.6 0 1.4-.8 2.2-2 2.5l2.2 3.1h-1.7zm-1.7-7h-2.1v2.8h2.1c1 0 1.7-.5 1.7-1.4 0-.9-.7-1.4-1.7-1.4zM141.1 13.8h1.4v8.3h-1.2l-4.6-5.9v5.9h-1.4v-8.3h1.4l4.4 5.7v-5.7zM148.7 22.2c-2.5 0-4.3-1.9-4.3-4.3 0-2.3 1.8-4.3 4.4-4.3 2.5 0 4.3 1.9 4.3 4.3-.1 2.4-1.9 4.3-4.4 4.3zm0-7.2c-1.6 0-2.8 1.3-2.8 2.9 0 1.6 1.2 3 2.8 3 1.6 0 2.8-1.3 2.8-2.9 0-1.7-1.2-3-2.8-3zM161.8 18.5c0 2.5-1.4 3.7-3.6 3.7s-3.5-1.2-3.5-3.6v-4.8h1.5v4.7c0 1.5.8 2.4 2.1 2.4s2.1-.8 2.1-2.3v-4.8h1.5v4.7zM169.2 22.1l-2-2.9h-1.8v2.9h-1.5v-8.3h3.7c1.9 0 3.1 1 3.1 2.6 0 1.4-.8 2.2-2 2.5l2.2 3.1h-1.7zm-1.7-7h-2.1v2.8h2.1c1 0 1.7-.5 1.7-1.4 0-.9-.6-1.4-1.7-1.4zM177.9 22.1l-2-2.9H174v2.9h-1.5v-8.3h3.7c1.9 0 3.1 1 3.1 2.6 0 1.4-.8 2.2-2 2.5l2.2 3.1h-1.6zm-1.8-7H174v2.8h2.1c1 0 1.7-.5 1.7-1.4 0-.9-.6-1.4-1.7-1.4zM182.6 13.8v8.3h-1.5v-8.3h1.5zM190.2 22.1l-2-2.9h-1.8v2.9h-1.5v-8.3h3.7c1.9 0 3.1 1 3.1 2.6 0 1.4-.8 2.2-2 2.5l2.2 3.1h-1.7zm-1.7-7h-2.1v2.8h2.1c1 0 1.7-.5 1.7-1.4 0-.9-.7-1.4-1.7-1.4zM77 33.9h-1.6v2.7h-1.5v-8.3h3.3c1.9 0 3.2 1.1 3.2 2.8-.1 1.8-1.6 2.8-3.4 2.8zm0-4.3h-1.7v3H77c1.1 0 1.8-.6 1.8-1.5 0-1-.7-1.5-1.8-1.5zM85.8 36.7c-2.5 0-4.3-1.9-4.3-4.3 0-2.3 1.8-4.3 4.4-4.3 2.5 0 4.3 1.9 4.3 4.3s-1.8 4.3-4.4 4.3zm0-7.2c-1.6 0-2.8 1.3-2.8 2.9 0 1.6 1.2 3 2.8 3 1.6 0 2.8-1.3 2.8-2.9 0-1.7-1.1-3-2.8-3zM98.9 33c0 2.5-1.4 3.7-3.6 3.7s-3.5-1.2-3.5-3.7v-4.8h1.5V33c0 1.5.8 2.4 2.1 2.4s2.1-.8 2.1-2.3v-4.8H99V33zM106.8 28.3h1.6l-3.4 8.4h-1.3l-3.4-8.4h1.6l2.5 6.4 2.4-6.4zM113.3 36.7c-2.5 0-4.3-1.9-4.3-4.3 0-2.3 1.8-4.3 4.4-4.3 2.5 0 4.3 1.9 4.3 4.3-.1 2.4-1.9 4.3-4.4 4.3zm0-7.2c-1.6 0-2.8 1.3-2.8 2.9 0 1.6 1.2 3 2.8 3 1.6 0 2.8-1.3 2.8-2.9 0-1.7-1.2-3-2.8-3zM120.9 28.3v8.3h-1.5v-8.3h1.5zM128.5 36.6l-2-2.9h-1.8v2.9h-1.5v-8.3h3.7c1.9 0 3.1 1 3.1 2.6 0 1.4-.8 2.2-2 2.5l2.2 3.1h-1.7zm-1.7-7h-2.1v2.8h2.1c1 0 1.7-.5 1.7-1.4 0-.9-.7-1.4-1.7-1.4zM139.2 36.7c-2.6 0-4.3-1.8-4.3-4.3 0-2.3 1.8-4.3 4.3-4.3 1.4 0 2.3.4 3.2 1.1l-.9 1.1c-.6-.5-1.3-.9-2.3-.9-1.5 0-2.7 1.3-2.7 2.9 0 1.7 1.1 3 2.8 3 .8 0 1.5-.2 2-.6v-1.6h-2.1V32h3.5v3.5c-.8.6-2 1.2-3.5 1.2zM150 36.6l-2-2.9h-1.8v2.9h-1.5v-8.3h3.7c1.9 0 3.1 1 3.1 2.6 0 1.4-.8 2.2-2 2.5l2.2 3.1H150zm-1.7-7h-2.1v2.8h2.1c1 0 1.7-.5 1.7-1.4 0-.9-.6-1.4-1.7-1.4zM161.5 36.6H160l-.8-2h-3.9l-.9 2h-1.5l3.7-8.4h1.4l3.5 8.4zm-4.4-6.6l-1.4 3.3h2.9l-1.5-3.3zM168.6 28.3h1.4v8.3h-1.2l-4.6-5.9v5.9h-1.4v-8.3h1.4l4.4 5.7v-5.7zM175.4 36.6h-3.1v-8.3h3.1c2.6 0 4.4 1.8 4.4 4.1 0 2.4-1.8 4.2-4.4 4.2zm0-7h-1.6v5.6h1.6c1.7 0 2.9-1.2 2.9-2.8 0-1.6-1.2-2.8-2.9-2.8zM183.1 28.3v8.3h-1.5v-8.3h1.5zM190.6 36.6l-2-2.9h-1.8v2.9h-1.5v-8.3h3.7c1.9 0 3.1 1 3.1 2.6 0 1.4-.8 2.2-2 2.5l2.2 3.1h-1.7zm-1.7-7h-2.1v2.8h2.1c1 0 1.7-.5 1.7-1.4 0-.9-.6-1.4-1.7-1.4z"/><path fill-rule="evenodd" clip-rule="evenodd" fill="#00A886" d="M32.7 0l.8.1.8.1.7.2.8.2.6.4.7.4.6.4.5.5.5.5.4.6.4.6.5.8.3.7.1.8.1.7v1.6l-.1.8-.1.8-.3.6-.4.7-.4.7-.4.6-.5.6-.5.5-.6.4-.6.4-.8.3-.7.3-.8.2-.8.1h-6.1v6.6h-5.6V0h10.9zm9.5 39.6h18.1v5.6H43.9l-1.7 1-1.8 1-1.9.8-1.9.7-2 .5-2 .4-2.1.3-2.1.1h-1.3l-1.4-.1-1.3-.2-1.4-.4-1.3-.3-1.2-.4-1.2-.4-1.2-.5-2.4-1.2-1.1-.7-1.1-.7-1.1-.8-1-.8-1-.8-1-.9-.9-.8-.8-.9-1.6-2-.8-1.1-.7-1-1.3-2.2-1.1-2.2-.9-2.4-.2-1.2-.3-1.2-.2-1.2-.2-1.2H6l.4 1.9.5 1.8.7 1.9.9 1.8 1 1.7 1.2 1.6 1.3 1.6 1.4 1.4.8.7.8.6 1.6 1.2 1.8 1 1.8.9 1.9.7 2 .6 2 .3 2.2.1 1.9-.1 1.9-.2 1.8-.4 1.8-.5 1.7-.7 1.7-.8 1.6-1 1.5-.9zm-3-7.6l-1.1 1-1.1 1-1.2.8-1.3.7-1.6.5-1.5.4-1.4.2-1.6.1H27l-1.3-.2-1.2-.4-1.2-.4-1.3-.5-1.2-.6-1.1-.8-1-.8-.9-.8-.8-1-.8-1-.7-1.1-.6-1.1-.5-1.2-.4-1.1-.3-1.2H7.9l.4 1.9.5 1.7.7 1.8.8 1.6.9 1.6 1.1 1.5 1.2 1.3 1.3 1.3 1.4 1.1 1.5 1 1.6.8 1.7.9 1.8.6 1.8.5 1.9.2 1.9.1 1.9-.1 1.8-.2 1.7-.4 1.7-.5 1.6-.7 1.6-.8 1.5-.9 1.4-1h18.8V32H39.2zm-.7-1.9l21.8.1v-5.7H35.4l-.5 1-.6.9-.8.8-.9.7-.9.6-1 .4-1.2.3-1.2.1-1.2-.1-1.1-.3-1-.4-.9-.6-.8-.7-.8-.8-.6-.9-.5-1h-5.9l.3 1.1.4 1.1.4 1 .5 1 .6.8.7.9.8.8.8.7.9.7.9.6 1 .5 1 .4 1.1.4 1.1.2 1.1.1h2.7l1.4-.3 1.4-.4 1.4-.6 1.2-.7 1.2-.8 1.1-.9 1-1zM.2 12.8V0h5.6v13.4l.3.8.4.8.5.6.7.4.8.4.8.2.8.1.8-.1.8-.2.8-.4.6-.4.5-.6.4-.7.2-.8.1-.8V0h5.6v14l-.1 1-.3 1-.4.9-.4.8-.5.8-.6.8-.6.6-.7.6-.8.5-.8.5-.8.5-.9.3-.9.3-1 .1h-1l-1-.1-1-.1-.9-.3-1-.2-.8-.4-.8-.5-.8-.6-.7-.7-.6-.7-.6-.8-.5-.8-.4-.8-.3-.9-.2-1-.2-1-.1-1zm60.1 9.4L52.3.1h-7l-8 22.1h6.1l1-3.3h8.7l1.1 3.3h6.1zm-8.6-7.5l-3.1-9.4-2.9 9.4h6zm-19.8-3.8h-4.4V4.8h5l.6.2.5.3.4.4.4.4.3.6.2.5v1.2l-.2.6-.3.5-.4.5-.4.4-.5.3-.6.2h-.6z"/><g fill-rule="evenodd" clip-rule="evenodd" fill="#00A886"><path d="M.3 67.3l2.2-9.8h2.2l-1.8 7.9h3.4l-.4 1.9H.3zM7.1 57.8h1.2v3.7H7.1v-3.7zM12.6 57.5l-1.3 5.8c0 .2-.1.3-.1.5v.4c0 .4.1.8.3 1 .2.2.5.4.9.4s.8-.2 1.1-.5c.3-.3.5-.8.6-1.5l1.4-6h2.1l-1.5 6.6c-.3 1.2-.7 2-1.3 2.5-.6.5-1.4.8-2.5.8s-1.9-.3-2.4-.8-.8-1.3-.8-2.4v-.6c0-.2.1-.4.1-.6l1.2-5.4h2.2v-.2zM17 67.3l1.1-5c0-.1 0-.1.1-.3.1-.6.2-1.1.3-1.5h2l-.2 1c.3-.4.6-.7.9-.9.3-.2.6-.3 1-.3.5 0 .8.2 1.1.5.3.3.4.7.4 1.3v.4c0 .1 0 .3-.1.4l-1 4.3h-2l.9-4.1c0-.1 0-.2.1-.4v-.4c0-.1 0-.3-.1-.4-.1-.1-.2-.2-.4-.2-.3 0-.6.1-.8.4-.2.3-.4.8-.5 1.4L19 67h-2v.3zM26 59.4l.4-1.9h2.2l-.4 1.9H26zm-1.7 7.9l1.5-6.8h2l-1.5 6.8h-2zM30.9 67.5c-.9 0-1.6-.2-2-.7-.5-.5-.7-1.2-.7-2.1 0-1.2.3-2.3 1-3.1.7-.8 1.5-1.2 2.6-1.2.9 0 1.5.2 2 .7.5.5.7 1.2.7 2.1 0 1.2-.3 2.2-1 3-.7.9-1.5 1.3-2.6 1.3zm.9-5.8c-.2 0-.4.1-.5.2-.2.1-.3.3-.5.6s-.3.8-.4 1.2c-.1.5-.2.9-.2 1.3 0 .3.1.6.2.8.1.2.3.3.5.3s.4-.1.5-.2c.2-.1.3-.3.4-.6.2-.3.3-.8.4-1.2.1-.5.2-.9.2-1.3 0-.3-.1-.6-.2-.8 0-.3-.2-.3-.4-.3zM34.8 67.3l1.1-5c0-.1 0-.1.1-.3.1-.6.2-1.1.3-1.5h2l-.2 1c.3-.4.6-.7.9-.9.3-.2.6-.3 1-.3.5 0 .8.2 1.1.5.3.3.4.7.4 1.3v.4c0 .1 0 .3-.1.4l-1 4.3h-2l.9-4.1c0-.1 0-.2.1-.4v-.4c0-.1 0-.3-.1-.4-.1-.1-.2-.2-.4-.2-.3 0-.6.1-.8.4-.2.3-.4.8-.5 1.4l-.8 3.5h-2v.3zM50 62.9c0-.3-.1-.6-.2-.8-.1-.2-.3-.3-.5-.3-.4 0-.7.3-.9.9-.3.6-.4 1.3-.4 2 0 .4.1.6.2.8.1.2.3.3.5.3.4 0 .7-.3 1-.9.2-.5.3-1.2.3-2zm3.4-5.4l-1.8 8.1v.1c-.1.6-.2 1-.3 1.5h-2l.2-.9c-.3.4-.5.6-.8.8-.3.2-.6.3-1 .3-.6 0-1-.2-1.3-.7-.3-.4-.5-1.1-.5-1.8 0-.6.1-1.3.3-1.9.2-.6.4-1.2.7-1.6.2-.4.5-.6.8-.8.3-.2.6-.3 1-.3s.7.1 1 .3c.3.2.5.5.7.9l.9-4h2.1zM55 64.4v.7c0 .3.1.6.2.7.1.2.3.3.5.3s.4-.1.6-.3c.2-.2.3-.4.3-.8h1.9c-.2.8-.5 1.4-1 1.8-.5.4-1.1.6-1.9.6-.8 0-1.4-.2-1.8-.7-.4-.5-.7-1.2-.7-2 0-1.3.3-2.4.9-3.2.6-.8 1.4-1.2 2.4-1.2.8 0 1.3.2 1.7.7.4.5.6 1.1.6 2v.6c0 .2-.1.5-.1.7H55v.1zm.3-1.3H57v-.5c0-.3-.1-.5-.2-.7-.1-.2-.3-.2-.5-.2s-.5.1-.6.4c-.1.1-.3.5-.4 1zM61.1 65.1v.2c0 .2.1.4.2.6.1.1.3.2.5.2s.4-.1.5-.2c.1-.1.2-.3.2-.5s0-.3-.1-.4c-.1-.1-.2-.2-.4-.3l-1-.6c-.4-.2-.6-.5-.8-.7-.2-.3-.2-.6-.2-1 0-.7.2-1.2.7-1.6.4-.4 1.1-.6 1.9-.6.7 0 1.2.1 1.6.4.4.3.6.7.6 1.3v.4H63v-.2c0-.2 0-.4-.1-.5-.1-.1-.2-.2-.4-.2s-.3.1-.4.2c-.1.1-.2.2-.2.4s0 .3.1.4c.1.1.2.2.4.3l1 .6c.3.2.5.4.7.7.2.3.2.6.2.9 0 .7-.2 1.3-.7 1.7-.5.4-1.1.6-1.9.6-.8 0-1.4-.2-1.8-.5-.4-.3-.6-.8-.6-1.4v-.5h1.8v.3zM71.3 64.8c0 .3.1.6.2.8.1.2.3.3.5.3.4 0 .7-.3.9-.9.3-.6.4-1.3.4-2 0-.4-.1-.6-.2-.8-.1-.2-.3-.3-.5-.3-.4 0-.7.3-1 .9-.1.6-.3 1.2-.3 2zm-3.3 5l1.7-7.4c.1-.3.2-.7.2-1 .1-.3.1-.6.2-.9h2l-.2.9c.3-.4.6-.6.9-.8.3-.2.6-.2.9-.2.6 0 1 .2 1.3.7.3.4.5 1 .5 1.8 0 .6-.1 1.3-.3 1.9-.2.6-.4 1.2-.7 1.6-.3.4-.5.6-.8.8-.3.2-.6.3-1 .3s-.7-.1-1-.3c-.3-.2-.5-.5-.7-.9l-.8 3.6H68v-.1zM75.8 67.2l1.2-5.1c.1-.4.2-.7.2-1 0-.2.1-.5.1-.7h1.9l-.3 1.3c.3-.5.6-.9.8-1.1.3-.2.5-.3.8-.3h.3c.1 0 .2 0 .4.1l-.5 2.1c-.1 0-.3-.1-.4-.1h-.4c-.3 0-.6.1-.8.4-.2.3-.4.8-.6 1.7l-.6 2.8h-2.1v-.1zM83.6 67.4c-.9 0-1.6-.2-2-.7-.5-.5-.7-1.2-.7-2.1 0-1.2.3-2.3 1-3.1.7-.8 1.5-1.2 2.6-1.2.9 0 1.5.2 2 .7.5.5.7 1.2.7 2.1 0 1.2-.3 2.2-1 3-.7.9-1.5 1.3-2.6 1.3zm.9-5.8c-.2 0-.4.1-.5.2-.2.1-.3.3-.5.6s-.3.8-.4 1.2c-.1.5-.2.9-.2 1.3 0 .3.1.6.2.8.1.2.3.3.5.3s.4-.1.5-.2c.2-.1.3-.3.4-.6.2-.3.3-.8.4-1.2.1-.5.2-.9.2-1.3 0-.3-.1-.6-.2-.8 0-.2-.2-.3-.4-.3zM92 62.8c0-.3-.1-.6-.2-.8-.1-.2-.3-.3-.5-.3-.4 0-.7.3-.9.9-.3.6-.4 1.3-.4 2 0 .4.1.6.2.8.1.2.3.3.5.3.4 0 .7-.3 1-.9.2-.5.3-1.2.3-2zm3.4-5.3l-1.8 8.1v.1c-.1.6-.2 1-.3 1.5h-2l.2-.9c-.3.4-.5.6-.8.8-.3.2-.6.2-1 .2-.6 0-1-.2-1.3-.7-.3-.4-.5-1.1-.5-1.8 0-.6.1-1.3.3-1.9.2-.6.4-1.2.7-1.6.2-.4.5-.6.8-.8.3-.2.6-.3 1-.3s.7.1 1 .3c.3.2.5.5.7.9l.9-4h2.1v.1zM101.9 60.4l-1.1 5s0 .1-.1.2c-.1.6-.2 1.1-.3 1.5h-2l.2-1c-.3.4-.6.7-.9.9-.3.2-.6.3-1 .3-.5 0-.8-.2-1.1-.5-.3-.3-.4-.7-.4-1.3v-.4c0-.1 0-.3.1-.4l1-4.3h2l-.9 4.1c0 .1-.1.3-.1.4v.4c0 .1 0 .3.1.4.1.1.2.2.4.2.3 0 .6-.1.8-.4.2-.3.4-.8.5-1.4l.8-3.5h2v-.2zM107.7 64.7c-.1.9-.4 1.6-.9 2-.5.4-1.1.7-2 .7-.8 0-1.4-.2-1.9-.7-.4-.5-.7-1.1-.7-2 0-1.3.3-2.4.9-3.2.6-.8 1.4-1.2 2.4-1.2.8 0 1.4.2 1.8.5.4.4.6.9.6 1.6v.6H106v-.6c0-.2 0-.4-.1-.6-.1-.1-.2-.2-.4-.2-.3 0-.7.4-.9 1.1-.3.7-.4 1.5-.4 2.3 0 .4.1.6.2.8.1.2.3.3.5.3s.4-.1.5-.3c.1-.2.3-.6.3-1h2v-.1zM109.7 62h-1l.4-1.5h1l.2-1 2.2-1-.4 2h1.2l-.4 1.5h-1.2l-.6 2.5c0 .1-.1.3-.1.4v.3c0 .2 0 .3.1.4.1.1.2.1.4.1h.2c.1 0 .2 0 .3-.1l-.3 1.5c-.2 0-.3.1-.5.1h-.4c-.6 0-1.1-.1-1.4-.4-.3-.2-.5-.6-.5-1.1 0-.2 0-.4.1-.6 0-.2.1-.5.2-.8l.5-2.3zM115.1 64.4v.7c0 .3.1.6.2.7.1.2.3.3.5.3s.4-.1.6-.3c.2-.2.3-.4.3-.8h1.9c-.2.8-.5 1.4-1 1.8-.5.4-1.1.6-1.9.6-.8 0-1.4-.2-1.8-.7-.4-.5-.7-1.2-.7-2 0-1.3.3-2.4.9-3.2.6-.8 1.4-1.2 2.4-1.2.8 0 1.3.2 1.7.7.4.5.6 1.1.6 2v.6c0 .2-.1.5-.1.7h-3.6v.1zm.3-1.3h1.7v-.5c0-.3-.1-.5-.2-.7-.1-.2-.3-.2-.5-.2s-.5.1-.6.4c-.2.1-.3.5-.4 1zM126.4 60.4l-1.1 5s0 .1-.1.2c-.1.6-.2 1.1-.3 1.5h-2l.2-1c-.3.4-.6.7-.9.9-.3.2-.6.3-1 .3-.5 0-.8-.2-1.1-.5-.3-.3-.4-.7-.4-1.3v-.4c0-.1 0-.3.1-.4l1-4.3h2l-.9 4.1c0 .1-.1.3-.1.4v.4c0 .1 0 .3.1.4.1.1.2.2.4.2.3 0 .6-.1.8-.4.2-.3.4-.8.5-1.4l.8-3.5h2v-.2zM126.4 67.2l1.2-5.1c.1-.4.2-.7.2-1 0-.2.1-.5.1-.7h1.9l-.3 1.3c.3-.5.6-.9.8-1.1.3-.2.5-.3.8-.3h.3c.1 0 .2 0 .4.1l-.5 2.1c-.1 0-.3-.1-.4-.1h-.4c-.3 0-.6.1-.8.4-.2.3-.4.8-.6 1.7l-.6 2.8h-2.1v-.1zM133.1 65v.2c0 .2.1.4.2.6.1.1.3.2.5.2s.4-.1.5-.2c.1-.1.2-.3.2-.5s0-.3-.1-.4c-.1-.1-.2-.2-.4-.3l-1-.6c-.4-.2-.6-.5-.8-.7-.2-.3-.2-.6-.2-1 0-.7.2-1.2.7-1.6.4-.4 1.1-.6 1.9-.6.7 0 1.2.1 1.6.4.4.3.6.7.6 1.3v.4H135V62c0-.2 0-.4-.1-.5-.1-.1-.2-.2-.4-.2s-.3.1-.4.2c-.1.1-.2.2-.2.4s0 .3.1.4c.1.1.2.2.4.3l1 .6c.3.2.5.4.7.6.2.3.2.6.2.9 0 .7-.2 1.3-.7 1.7-.5.4-1.1.6-1.9.6-.8 0-1.4-.2-1.8-.5-.4-.3-.6-.8-.6-1.4v-.5h1.8v.4zM144.8 64.2h-.2c-.6 0-1 .1-1.2.3-.3.2-.4.5-.4.9 0 .2.1.4.2.6.1.1.3.2.5.2.3 0 .5-.2.7-.5.1-.4.3-.9.4-1.5zm-.5 3.1l.1-.9c-.3.4-.5.6-.9.8-.3.2-.7.3-1.1.3-.5 0-.9-.2-1.1-.5-.3-.3-.4-.8-.4-1.3 0-.8.3-1.5.8-2s1.3-.7 2.3-.7h.9c0-.2.1-.4.1-.5v-.3c0-.2-.1-.4-.2-.5-.1-.1-.3-.2-.4-.2-.2 0-.4.1-.5.2-.1.2-.2.4-.3.7H142c.1-.7.4-1.2.8-1.6.5-.4 1.1-.6 1.9-.6.7 0 1.3.2 1.7.5.4.3.6.8.6 1.4v.4c0 .2-.1.4-.1.7l-.5 2.4c0 .2-.1.4-.1.7 0 .3-.1.5-.1.9h-1.9v.1zM154.6 60.6l-1.2 5.2c-.2.9-.4 1.5-.5 2-.1.4-.3.8-.5 1-.3.4-.6.7-1.1.9-.4.2-1 .3-1.6.3-.8 0-1.4-.2-1.8-.5-.4-.3-.7-.8-.7-1.4v-.4h1.8c0 .3.1.5.2.7.1.2.3.2.6.2.4 0 .6-.2.8-.5.2-.3.4-1 .6-2-.3.4-.5.6-.8.8-.3.2-.6.2-.9.2-.5 0-1-.2-1.3-.6-.3-.4-.5-1-.5-1.8 0-1.2.3-2.2.8-3.1.5-.8 1.2-1.3 2-1.3.4 0 .8.1 1.1.3.3.2.5.6.7 1l.3-1.2h2v.2zm-2.6 2.3c0-.3-.1-.6-.2-.8-.1-.2-.3-.3-.5-.3-.4 0-.7.3-.9.9-.3.6-.4 1.2-.4 2 0 .3.1.6.2.8.1.2.3.3.5.3.4 0 .7-.3.9-.8.2-.7.4-1.4.4-2.1zM154.6 67.3l1.2-5.1c.1-.4.2-.7.2-1 0-.2.1-.5.1-.7h1.9l-.3 1.3c.3-.5.6-.9.8-1.1.3-.2.5-.3.8-.3h.3c.1 0 .2 0 .4.1l-.5 2.1c-.1 0-.3-.1-.4-.1h-.4c-.3 0-.6.1-.8.4-.2.3-.4.8-.6 1.7l-.6 2.8h-2.1v-.1zM161.1 59.5l.4-1.9h2.2l-.4 1.9h-2.2zm-1.7 7.8l1.5-6.8h2l-1.5 6.8h-2zM168.7 64.8c-.1.9-.4 1.6-.9 2-.5.4-1.1.7-2 .7-.8 0-1.4-.2-1.9-.7-.4-.5-.7-1.1-.7-2 0-1.3.3-2.4.9-3.2.6-.8 1.4-1.2 2.4-1.2.8 0 1.4.2 1.8.5.4.4.6.9.6 1.6v.6H167v-.6c0-.2 0-.4-.1-.6-.1-.1-.2-.2-.4-.2-.3 0-.7.4-.9 1.1-.3.7-.4 1.5-.4 2.3 0 .4.1.6.2.8.1.2.3.3.5.3s.4-.1.5-.3c.1-.2.3-.6.3-1h2v-.1zM172.4 67.5c-.9 0-1.6-.2-2-.7-.5-.5-.7-1.2-.7-2.1 0-1.2.3-2.3 1-3.1.7-.8 1.5-1.2 2.6-1.2.9 0 1.5.2 2 .7.5.5.7 1.2.7 2.1 0 1.2-.3 2.2-1 3-.7.9-1.5 1.3-2.6 1.3zm.9-5.8c-.2 0-.4.1-.5.2-.2.1-.3.3-.5.6s-.3.8-.4 1.2c-.1.5-.2.9-.2 1.3 0 .3.1.6.2.8.1.2.3.3.5.3s.4-.1.5-.2c.2-.1.3-.3.4-.6.2-.3.3-.8.4-1.2.1-.5.2-.9.2-1.3 0-.3-.1-.6-.2-.8 0-.2-.2-.3-.4-.3zM176.4 67.3l2.2-9.7h2l-2.2 9.7h-2zM182.3 64.5v.7c0 .3.1.6.2.7.1.2.3.3.5.3s.4-.1.6-.3c.2-.2.3-.4.3-.8h1.9c-.2.8-.5 1.4-1 1.8-.5.4-1.1.6-1.9.6-.8 0-1.4-.2-1.8-.7-.4-.5-.7-1.2-.7-2 0-1.3.3-2.4.9-3.2.6-.8 1.4-1.2 2.4-1.2.8 0 1.3.2 1.7.7.4.5.6 1.1.6 2v.6c0 .2-.1.5-.1.7h-3.6v.1zm.2-1.3h1.7v-.5c0-.3-.1-.5-.2-.7-.1-.2-.3-.2-.5-.2s-.5.1-.6.4c-.1.1-.3.5-.4 1zM188.3 65.1v.2c0 .2.1.4.2.6.1.1.3.2.5.2s.4-.1.5-.2c.1-.1.2-.3.2-.5s0-.3-.1-.4c-.1-.1-.2-.2-.4-.3l-1-.6c-.4-.2-.6-.5-.8-.7-.2-.3-.2-.6-.2-1 0-.7.2-1.2.7-1.6.4-.4 1.1-.6 1.9-.6.7 0 1.2.1 1.6.4.4.3.6.7.6 1.3v.4h-1.8v-.2c0-.2 0-.4-.1-.5-.1-.1-.2-.2-.4-.2s-.3.1-.4.2c-.1.1-.2.2-.2.4s0 .3.1.4c.1.1.2.2.4.3l1 .6c.3.2.5.4.7.7.2.3.2.6.2.9 0 .7-.2 1.3-.7 1.7-.5.4-1.1.6-1.9.6-.8 0-1.4-.2-1.8-.5-.4-.3-.6-.8-.6-1.4v-.5h1.8v.3z"/></g></svg>